<?xml version="1.0" encoding="utf-8"?>
<!-- Generator: Adobe Illustrator 27.8.1, SVG Export Plug-In . SVG Version: 6.00 Build 0)  -->
<svg version="1.1" id="Calque_1" xmlns="http://www.w3.org/2000/svg" xmlns:xlink="http://www.w3.org/1999/xlink" x="0px" y="0px"
	 viewBox="0 0 1920 1920" style="enable-background:new 0 0 1920 1920;" xml:space="preserve">
<path d="M588.13,1138.28c0-54.35,0-107.81,0-161.96c-2.21,0-4.16,0-6.11,0c-97.83,0-195.66,0.03-293.5-0.11
	c-4.43-0.01-6.23,1.33-7.73,5.47c-10.21,28.18-39.9,45.15-69.01,39.79c-30.55-5.63-51.81-31.18-51.7-62.13
	c0.11-30.01,21.89-55.51,52-60.89c29.15-5.2,58.72,11.89,68.79,40.16c1.47,4.12,3.38,5.14,7.45,5.14c98-0.1,196-0.08,294-0.08
	c1.8,0,3.6,0,5.72,0c0-54.15,0-107.71,0-161.66c-1.83-0.11-3.44-0.28-5.06-0.28c-42.33-0.01-84.67,0.04-127-0.1
	c-3.81-0.01-5.41,1.2-6.73,4.75c-10.51,28.47-39.79,45.43-68.83,40.11c-30.4-5.56-52.01-31.02-52.09-61.38
	c-0.08-30.3,21.63-56.13,51.8-61.65c29.34-5.36,58.55,11.56,69.23,40.28c1.11,2.98,2.15,4.57,5.81,4.55c43-0.15,86-0.1,129-0.12
	c1.14,0,2.28-0.13,4.18-0.25c0-2.1-0.01-4.02,0-5.95c0.11-18.5-0.74-37.06,0.52-55.47c3.83-55.95,49.54-98.01,105.68-98.14
	c15.83-0.04,31.67,0,47.5,0c1.8,0,3.6,0,6.12,0c0-2.21,0-3.98,0-5.75c0-42.17-0.05-84.33,0.08-126.5c0.01-3.68-0.87-5.46-4.57-6.82
	c-28.69-10.5-45.61-39.84-40.23-69.21c5.57-30.37,31.67-52.09,62.18-51.75c30.33,0.34,55.78,22.32,60.93,52.64
	c4.9,28.83-11.83,57.67-39.83,68.08c-3.98,1.48-5.17,3.34-5.16,7.48c0.16,42,0.1,84,0.1,126c0,1.64,0,3.29,0,5.38
	c53.93,0,107.48,0,161.61,0c0.11-1.67,0.33-3.42,0.33-5.17c0.02-98.33-0.01-196.66,0.13-294.99c0.01-4.22-1.61-5.57-5.24-6.87
	c-28.4-10.22-45.48-40.05-39.96-69.35c5.85-31.1,31.93-52.12,63.82-51.45c29.35,0.62,55,23.63,59.34,53.23
	c4.3,29.31-12.62,57.73-40.6,67.64c-3.89,1.38-4.91,3.19-4.91,7.11c0.11,98,0.09,196,0.09,294c0,1.81,0,3.62,0,5.86
	c54.01,0,107.55,0,161.96,0c0-1.86,0-3.78,0-5.7c0-41.83-0.08-83.67,0.12-125.5c0.02-4.47-1.45-6.25-5.48-7.76
	c-28.08-10.55-44.71-39.84-39.36-68.78c5.61-30.34,31.23-51.91,61.57-51.84c30.15,0.07,55.75,21.59,61.33,51.57
	c5.4,29.01-11.04,58.38-39.1,68.92c-4.73,1.78-5.69,4.05-5.67,8.61c0.16,41.5,0.1,83,0.1,124.5c0,1.95,0,3.9,0,6.43
	c2.54,0,4.49-0.01,6.43,0c18.66,0.14,37.39-0.67,55.97,0.6c54.95,3.76,97.23,49.66,97.41,104.83c0.06,17.82,0.01,35.65,0.01,54.12
	c2,0.1,3.75,0.26,5.49,0.26c42.33,0.02,84.67-0.04,127,0.12c3.89,0.01,5.35-1.36,6.65-4.84c10.54-28.3,39.16-44.98,68.41-40.13
	c29.51,4.9,51.27,29.61,52.46,59.59c1.18,29.62-20.01,56.86-48.95,62.95c-30.47,6.41-60.59-9.6-71.48-38.42
	c-1.72-4.54-3.8-5.88-8.51-5.86c-41.5,0.19-83,0.11-124.5,0.11c-1.96,0-3.91,0-6.22,0c0,54.13,0,107.7,0,161.96
	c2.12,0,4.07,0,6.02,0c97.83,0,195.66-0.03,293.49,0.11c4.44,0.01,6.23-1.34,7.72-5.47c10.22-28.17,39.86-45.12,69.01-39.78
	c30.49,5.58,51.81,31.21,51.69,62.14c-0.11,30-21.91,55.51-52.01,60.88c-29.15,5.2-58.71-11.9-68.78-40.17
	c-1.47-4.13-3.41-5.13-7.47-5.12c-98,0.1-196,0.08-294,0.08c-1.8,0-3.59,0-5.71,0c0,54.16,0,107.72,0,161.71
	c2.02,0.09,3.8,0.23,5.58,0.23c42,0.01,84-0.06,126,0.11c4.22,0.02,5.96-1.32,7.41-5.24c10.54-28.32,40.04-45.05,69.13-39.53
	c30.34,5.77,51.76,31.42,51.58,61.78c-0.18,30.3-22.22,56.1-52.32,61.22c-29.34,5-58.1-11.85-68.75-40.39
	c-0.99-2.65-1.7-4.55-5.3-4.54c-43.33,0.14-86.66,0.1-130,0.11c-0.97,0-1.94,0.14-3.66,0.26c0,2.09,0.01,4.02,0,5.95
	c-0.13,18.66,0.69,37.39-0.58,55.97c-3.77,55.08-49.34,97.22-104.65,97.61c-16.17,0.12-32.33,0.02-48.5,0.01c-1.8,0-3.6,0-6.1,0
	c0,2.23,0,4,0,5.77c0,42,0.05,84-0.08,126c-0.01,4.01,0.94,6,5.05,7.51c28.2,10.41,44.8,39.25,39.83,68.53
	c-5.03,29.67-30.25,51.5-60.3,52.21c-29.82,0.7-56.5-20.59-62.32-49.72c-6.02-30.11,9.92-59.81,38.35-70.64
	c4.69-1.79,6.13-3.87,6.1-8.86c-0.23-41.33-0.13-82.66-0.13-124c0-1.98,0-3.95,0-6.36c-53.96,0-107.51,0-161.65,0
	c-0.1,1.87-0.29,3.79-0.29,5.71c-0.02,98,0.01,196-0.11,293.99c-0.01,4.17,1.23,5.94,5.24,7.38c28.23,10.11,45.31,39.74,40.05,68.85
	c-5.49,30.34-31.02,51.9-61.46,51.91c-30.5,0.01-56-21.45-61.56-51.79c-5.32-29.1,11.71-58.8,39.91-68.93
	c4.26-1.53,5.37-3.47,5.36-7.8c-0.13-97.66-0.1-195.33-0.1-293c0-1.98,0-3.95,0-6.34c-54.03,0-107.57,0-161.7,0
	c-0.09,1.72-0.25,3.49-0.25,5.25c-0.01,42.17,0.06,84.33-0.12,126.5c-0.02,4.08,1.33,5.69,5.03,7.07
	c28.42,10.57,45.19,39.84,39.79,68.97c-5.62,30.34-31.27,51.91-61.6,51.81c-30.35-0.1-56.1-21.93-61.4-52.09
	c-5.18-29.45,11.79-58.48,40.61-69.02c3.27-1.19,4.26-2.64,4.25-6.02c-0.11-42.67-0.07-85.33-0.09-128c0-1.45-0.19-2.91-0.32-4.9
	c-2.23,0-4.18,0.01-6.14,0c-18.5-0.13-37.05,0.67-55.47-0.57c-55.52-3.72-97.83-49.69-97.88-105.4c-0.02-17.66,0-35.31,0-53.59
	c-2.02-0.1-3.78-0.25-5.53-0.25c-42.33-0.02-84.67,0.02-127-0.09c-3.46-0.01-5.15,0.86-6.45,4.37
	c-10.47,28.45-38.58,45.11-68.07,40.64c-29.34-4.44-51.36-29.05-52.95-59.16c-1.56-29.63,19.79-57.33,48.92-63.46
	c30.48-6.41,60.59,9.59,71.49,38.41c1.71,4.53,3.79,5.89,8.5,5.87c41.67-0.19,83.33-0.11,125-0.11
	C584.09,1138.28,585.88,1138.28,588.13,1138.28z M621.11,960.01c0,87.65-0.05,175.3,0.02,262.96c0.04,44.15,31.61,75.89,75.55,75.9
	c175.64,0.05,351.28,0.06,526.92-0.01c43.26-0.02,75.21-31.54,75.24-74.67c0.14-176.14,0.14-352.28,0-528.42
	c-0.03-42.92-31.83-74.6-74.76-74.62c-175.97-0.12-351.94-0.05-527.92-0.05c-14.66,0-28.48,3.28-40.83,11.37
	c-23.2,15.21-34.21,37.02-34.22,64.57C621.09,784.71,621.11,872.36,621.11,960.01z M736.02,390.59
	c-0.12,15.83,12.95,29.12,28.76,29.23c15.74,0.11,29.09-13.07,29.2-28.84c0.12-15.83-12.96-29.04-28.82-29.11
	C749.19,361.78,736.15,374.64,736.02,390.59z M1154.99,361.86c-15.89,0.01-29,13.11-28.97,28.96c0.02,15.77,13.25,28.98,29.05,28.99
	c15.76,0.02,28.98-13.27,28.91-29.07C1183.91,374.77,1170.94,361.84,1154.99,361.86z M1155.12,1558.14
	c15.95-0.04,28.86-13.02,28.86-29.01c0-15.79-13.24-28.98-29.05-28.94c-15.75,0.04-28.97,13.36-28.92,29.12
	C1126.06,1545.17,1139.21,1558.18,1155.12,1558.14z M361.86,764.89c-0.02,15.93,12.98,29.05,28.84,29.11
	c15.74,0.06,29.01-13.13,29.12-28.94c0.11-15.74-13.15-29.03-28.95-29.04C374.89,736.02,361.88,748.96,361.86,764.89z
	 M1558.14,765.07c0.05-15.97-12.83-28.96-28.82-29.05c-15.82-0.09-29.02,13-29.13,28.86c-0.1,15.71,13.16,29.06,28.93,29.12
	C1544.97,794.06,1558.09,780.97,1558.14,765.07z M361.86,1154.97c-0.04,15.95,12.89,28.93,28.87,29
	c15.81,0.07,29.08-13.12,29.08-28.9c0-15.78-13.22-29.05-28.98-29.07C374.98,1125.97,361.9,1139.06,361.86,1154.97z
	 M1558.14,1155.25c0.08-15.95-12.83-29.11-28.7-29.25c-15.76-0.14-29.09,12.98-29.25,28.8c-0.16,15.77,13.01,29.12,28.8,29.18
	C1545,1184.04,1558.06,1171.17,1558.14,1155.25z M764.74,1558.14c15.93,0.1,29.12-12.84,29.25-28.69
	c0.13-15.77-12.99-29.11-28.78-29.26c-15.77-0.15-29.12,13.02-29.19,28.8C735.95,1544.99,748.82,1558.05,764.74,1558.14z
	 M959.93,251.35c15.87,0.04,29.01-12.99,29.09-28.86c0.08-15.82-13.01-28.91-28.94-28.93c-15.96-0.03-29.08,12.95-29.09,28.79
	C930.97,238.2,944.05,251.3,959.93,251.35z M251.35,959.95c-0.03-15.87-13.14-28.98-28.98-28.97
	c-15.85,0.01-28.85,13.11-28.83,29.06c0.02,15.95,13.07,29.02,28.92,28.97C238.3,988.97,251.38,975.82,251.35,959.95z
	 M1668.65,960.04c0.03,15.88,13.12,28.97,28.98,28.98c15.85,0,28.85-13.1,28.83-29.06c-0.02-15.95-13.07-29.03-28.92-28.98
	C1681.68,931.03,1668.62,944.16,1668.65,960.04z M959.87,1726.45c15.97,0.05,29.1-12.89,29.14-28.73
	c0.04-15.86-13.01-28.99-28.88-29.06c-15.87-0.07-29.03,12.93-29.14,28.8C930.87,1713.28,943.94,1726.4,959.87,1726.45z"/>
<path d="M1058.32,1135.28c-15.9,0-31.04,0.11-46.17-0.19c-1.3-0.03-3.15-2.52-3.73-4.22c-10.29-29.93-20.43-59.91-30.59-89.88
	c-1.39-4.1-2.87-8.18-4.12-12.32c-0.78-2.59-2.11-3.66-4.98-3.65c-39,0.09-78,0.12-116.99-0.03c-3.47-0.01-4.05,1.84-4.87,4.33
	c-11.16,33.85-22.42,67.68-33.5,101.56c-1.03,3.14-2.19,4.56-5.79,4.5c-13.97-0.23-27.94-0.1-42.62-0.1
	c1.99-5.96,3.73-11.28,5.53-16.58c37.3-109.77,74.62-219.53,111.81-329.33c1.23-3.64,2.87-4.82,6.68-4.76
	c14.83,0.23,29.67,0.25,44.49-0.01c4-0.07,5.78,1.09,7.08,4.95c23.86,70.35,47.87,140.65,71.85,210.96
	c14.68,43.04,29.37,86.07,44.05,129.11C1056.98,1131.18,1057.48,1132.74,1058.32,1135.28z M857.93,989.26c35.23,0,69.76,0,104.73,0
	c-17.43-54.87-38.89-107.93-52.61-163.68C896.46,881.29,875.57,934.44,857.93,989.26z"/>
<path d="M1110.14,784.99c14.85,0,29.45,0,44.47,0c0,116.54,0,233.04,0,349.91c-14.73,0-29.44,0-44.47,0
	C1110.14,1018.28,1110.14,901.78,1110.14,784.99z"/>
</svg>
